<svg xmlns="http://www.w3.org/2000/svg" viewBox="0 0 100 100" fill="none">
  <circle cx="50" cy="50" r="48" fill="#2a2d35" stroke="#666" stroke-width="2"/>
  <!-- Cabeça -->
  <circle cx="50" cy="38" r="18" fill="#3a3d45" stroke="#888" stroke-width="1.5"/>
  <!-- Cabelo masculino -->
  <path d="M32 36c0-12 8-20 18-20s18 8 18 20" fill="#3a3d45" stroke="#888" stroke-width="1.5"/>
  <path d="M32 36c-2 4-2 10 0 14" fill="none" stroke="#888" stroke-width="1.5"/>
  <!-- Pescoço -->
  <rect x="43" y="54" width="14" height="8" fill="#3a3d45" stroke="#888" stroke-width="1"/>
  <!-- Corpo/camisa com gola -->
  <path d="M30 62c0-2 4-4 8-4h24c4 0 8 2 8 4v20c0 2-2 4-4 4H34c-2 0-4-2-4-4V62z" fill="#3a3d45" stroke="#888" stroke-width="1.5"/>
  <!-- Gola -->
  <path d="M43 62l7 6 7-6" fill="none" stroke="#888" stroke-width="1.5"/>
  <path d="M47 68v8M53 68v8" fill="none" stroke="#888" stroke-width="1"/>
  <!-- Ombros -->
  <path d="M22 72c0-4 4-8 10-8" fill="#3a3d45" stroke="#888" stroke-width="1.5"/>
  <path d="M78 72c0-4-4-8-10-8" fill="#3a3d45" stroke="#888" stroke-width="1.5"/>
</svg>
